<svg xmlns="http://www.w3.org/2000/svg" viewBox="0 0 115 115"><title>icon_preicon-play</title><g id="图层_2" data-name="图层 2"><g id="图层_1-2" data-name="图层 1"><path d="M42.6,57.36a1.2,1.2,0,0,0,0,2.08l16.79,9.73,16.8,9.73a1.21,1.21,0,0,0,1.81-1l0-19.41,0-19.41a1.21,1.21,0,0,0-1.81-1L59.42,47.68Z" style="fill:#31c27c"/><rect x="38" y="38" width="11" height="41" rx="1.34" transform="translate(87 117) rotate(-180)" style="fill:#31c27c"/><path d="M57.5,115A57.5,57.5,0,1,1,115,57.5,57.56,57.56,0,0,1,57.5,115Zm0-109A51.5,51.5,0,1,0,109,57.5,51.55,51.55,0,0,0,57.5,6Z" style="fill:#31c27c"/></g></g></svg>