<?xml version="1.0" encoding="UTF-8"?>
<svg width="19px" height="16px" viewBox="0 0 19 16" version="1.1" xmlns="http://www.w3.org/2000/svg" xmlns:xlink="http://www.w3.org/1999/xlink">
    <!-- Generator: Sketch 53.2 (72643) - https://sketchapp.com -->
    <title>Shape</title>
    <desc>Created with Sketch.</desc>
    <g id="Page-1" stroke="none" stroke-width="1" fill="none" fill-rule="evenodd">
        <g id="Book-details" transform="translate(-23.000000, -56.000000)" fill="#FFFFFF" fill-rule="nonzero" stroke="#FFFFFF" stroke-width="0.5">
            <g id="Top-Bar">
                <g id="return" transform="translate(23.000000, 56.000000)">
                    <path d="M1,8.15099601 C1,8.13862287 1.00661111,8.12862917 1.00708333,8.11625601 C1.00881058,7.93813294 1.07886951,7.76759398 1.20258333,7.64036565 C1.22814477,7.62031255 1.25513414,7.60217988 1.28333333,7.58611416 L7.6045,1.21632169 C7.77908872,1.0326976 8.03857535,0.958600237 8.28279697,1.02263148 C8.52701859,1.08666273 8.71777275,1.27880648 8.78142755,1.52489443 C8.84508234,1.77098239 8.77168054,2.03252017 8.58955556,2.2085531 L3.40219445,7.43716046 L17.2916667,7.43716046 C17.6828684,7.43716046 18,7.75675552 18,8.15099601 C18,8.54523649 17.6828684,8.86483155 17.2916667,8.86483155 L3.40219445,8.86483155 L8.58955556,14.0915354 C8.7655188,14.2688654 8.83424027,14.5273297 8.76983326,14.7695671 C8.70542624,15.0118045 8.51767571,15.2010134 8.27730546,15.2659207 C8.03693522,15.330828 7.78046322,15.2615727 7.6045,15.0842427 L1.28333333,8.7139743 C1.25515606,8.69804988 1.2281679,8.68007707 1.20258333,8.66019869 C1.07891121,8.53294259 1.00885956,8.36242133 1.00708333,8.18430833 C1.00661111,8.17288697 1,8.16241737 1,8.15099601 Z" id="Shape"></path>
                </g>
            </g>
        </g>
    </g>
</svg>