<svg xmlns="http://www.w3.org/2000/svg" viewBox="0 0 70 58"><title>icon_single_loopicon-play</title><g id="图层_2" data-name="图层 2"><g id="图层_1-2" data-name="图层 1"><path d="M22,7a22,22,0,0,0,0,44h2.5V47H22a18,18,0,0,1,0-36h9.76l-4-4Z" style="fill:#31c27c"/><path d="M48,7H45.5v4H48a18,18,0,0,1,0,36H38.24l4,4H48A22,22,0,0,0,48,7Z" style="fill:#31c27c"/><polygon points="28.76 7 36.24 7 29.24 0 21.76 0 28.76 7" style="fill:#31c27c"/><polygon points="31.76 11 40.24 11 36.24 7 27.76 7 31.76 11" style="fill:#31c27c"/><polygon points="40.76 58 48.24 58 41.24 51 33.76 51 40.76 58" style="fill:#31c27c"/><polygon points="29.76 47 33.76 51 42.24 51 38.24 47 29.76 47" style="fill:#31c27c"/><rect x="33" y="19.5" width="4" height="20" style="fill:#31c27c"/><rect x="29" y="19.5" width="5" height="3" style="fill:#31c27c"/></g></g></svg>