<svg xmlns="http://www.w3.org/2000/svg" viewBox="0 0 911.96 978.15"><title>image_ngrx</title><g id="图层_2" data-name="图层 2"><g id="图层_1-2" data-name="图层 1"><g id="badge"><polygon id="Path-2" points="456.96 0 0 158.62 65.42 764.86 456.96 978.15 456.96 0" style="fill:#412846;fill-rule:evenodd"/><polygon points="455 0 911.96 158.62 846.54 764.86 455 978.15 455 0" style="fill:#4b314f;fill-rule:evenodd"/><path id="Combined-Shape" d="M683.75,334.71l-.08-.26Q715,369.3,715.82,417.18c.57,31.93-10.15,65.61-32.4,100.93,16.63-12.92,35.83-40.83,57.55-83.39Q755,564.1,636.08,631.36q38-3.51,100.77-50.14Q670,742.13,491.07,751c-115.29,0-190-69.32-189.92-69.28q-71.1-55.34-97.73-139.28c-28.35-31-28.63-34.28-31.56-46.65S173.71,480,182,467.88c5.53-8.07,6.84-19.68,4-34.62q-10.57-14.68-12.19-46,0-15.13,20.19-31.93c13.47-11.19,21.73-19.8,24.72-25.73q3.42-4.86,2.64-42-.21-36.54,40.57-39.75c40.77-3.22,63.77-33.89,76.58-47.83,8.54-9.3,21.18-13.82,37.12-13.9,22.44-1.06,42.86,7.55,60.45,25.3,43.82-2.27,88.7,9.55,134.17,35.15q96.94,57.59,105.81,124.51-10.4,87.93-235.91-4.62-117.93,33.4-116,144.77-.07,102.2,98.7,148.47c-32.06-31.47-45.71-57.93-41.12-79.83q100,118.44,227.73,88.55c-37.52,1.31-67.23-10.76-89.6-36.4q86.28-2.1,163-80.37c-29.52,23.49-60.4,32.38-93.1,26.78Q722.57,474,683.75,334.71ZM523,324a13,13,0,1,0-13-13A13,13,0,0,0,523,324Z" style="fill:#ba2bd2;fill-rule:evenodd"/></g></g></g></svg>